<svg width="180" height="180" viewBox="0 0 180 180" fill="none" xmlns="http://www.w3.org/2000/svg">
<rect width="180" height="180" fill="#D9D9D9"/>
<path d="M35.684 79.8943C35.3378 80.7294 34.6849 81.4979 33.7168 82.197C34.4581 82.9351 34.8687 83.7224 34.9511 84.5561C35.0358 85.3926 35.0382 86.041 34.9654 86.5085L34.7923 87.6142L33.8863 93.3774L33.6798 94.6814C33.5807 95.3168 33.3623 95.9695 33.0257 96.6353C32.6914 97.304 32.2498 97.9162 31.703 98.4647C31.1539 99.0176 30.4998 99.4677 29.7382 99.8208C28.9743 100.171 28.116 100.346 27.161 100.346H16L18.545 84.1537L19.1645 80.1925L21.7094 64H32.8705C33.8242 64 34.6288 64.178 35.2829 64.5283C35.9335 64.8785 36.4492 65.3286 36.8228 65.88C37.1964 66.4329 37.4447 67.0408 37.5701 67.7094C37.6978 68.3781 37.7085 69.0308 37.6094 69.6662L37.4029 70.9673L36.4516 77.033L36.3095 77.9361C36.2355 78.405 36.0266 79.0578 35.6816 79.8929M28.4562 96.0361C29.0172 95.5006 29.3909 94.8522 29.5807 94.0794L30.5714 87.7662L30.6586 87.2133C30.6992 86.9456 30.6992 86.6359 30.6562 86.2871C30.6132 85.9339 30.4664 85.601 30.2205 85.2841C29.9734 84.9642 29.5866 84.7008 29.0626 84.4808C28.5362 84.2652 27.8307 84.1552 26.9426 84.1552H22.6954L20.702 96.8394H26.378C27.2016 96.8394 27.8928 96.5716 28.4562 96.0361ZM23.3173 80.1939H28.3535C29.0877 80.1273 29.6929 79.9869 30.1739 79.767C30.6526 79.5513 31.037 79.2908 31.3318 78.9912C31.6267 78.6887 31.8391 78.379 31.9716 78.0635C32.1029 77.7436 32.1877 77.4701 32.2235 77.2356L32.3178 76.6321L33.2632 70.6185L33.2811 70.5187C33.4136 69.685 33.2787 68.9744 32.8764 68.3882C32.4742 67.805 31.8451 67.5126 30.988 67.5126H25.312L23.3185 80.1939H23.3173Z" fill="#09672F"/>
<path d="M41.3474 74.1789H45.4955L41.3844 100.348H37.2363L41.3486 74.1789H41.3474ZM47.0867 64.0521L46.2941 69.1148H42.1436L42.9422 64.0521H47.0867Z" fill="#09672F"/>
<path d="M63.0401 93.8796L62.9136 94.6829C62.8503 95.0809 62.7011 95.6207 62.466 96.2865C62.2284 96.9566 61.7784 97.6252 61.1123 98.291C60.4462 98.9597 59.5176 99.5371 58.3227 100.021C57.1254 100.505 55.5402 100.749 53.567 100.749C51.5938 100.749 50.0814 100.505 49.0393 100.021C47.9948 99.5371 47.244 98.9597 46.7916 98.291C46.3356 97.6252 46.0968 96.9494 46.0718 96.2619C46.0491 95.5744 46.0658 95.0505 46.1231 94.6829L46.2102 94.1344L48.4556 79.8436C48.5117 79.4775 48.6633 78.9507 48.9008 78.2646C49.1408 77.5815 49.592 76.9013 50.2569 76.2355C50.923 75.5654 51.854 74.9894 53.0489 74.5045C54.2438 74.0197 55.829 73.778 57.8058 73.778C59.7825 73.778 61.2878 74.0211 62.3323 74.5045C63.3744 74.9879 64.124 75.5654 64.58 76.2355C65.0336 76.9013 65.2747 77.5714 65.2998 78.24C65.3285 78.9101 65.3105 79.4413 65.2449 79.8436L63.0401 93.8811V93.8796ZM58.9243 93.3789L60.8473 81.1477L60.9321 80.5948C60.9774 80.2952 60.9834 79.9696 60.938 79.615C60.8927 79.2647 60.7399 78.9391 60.4737 78.6409C60.2075 78.3384 59.8112 78.0808 59.2872 77.8608C58.7631 77.6452 58.0218 77.5352 57.0669 77.5352C56.1788 77.5352 55.4447 77.6452 54.8669 77.8608C54.2892 78.0808 53.8272 78.3486 53.4822 78.6641C53.1361 78.9825 52.8902 79.3226 52.7517 79.6902C52.6132 80.0607 52.5189 80.3763 52.4795 80.6455L52.3996 81.1462L50.4777 93.3774L50.3977 93.8782C50.3559 94.1459 50.3464 94.4614 50.3727 94.832C50.3953 95.1996 50.5314 95.5426 50.7773 95.8581C51.0268 96.1779 51.4028 96.4414 51.9101 96.6613C52.4198 96.8784 53.1193 96.9884 54.0086 96.9884C54.9624 96.9884 55.7383 96.8784 56.3328 96.6613C56.9248 96.4414 57.4035 96.1852 57.7628 95.8827C58.1221 95.5845 58.38 95.2575 58.5328 94.9072C58.6855 94.5541 58.787 94.2284 58.8359 93.9288L58.9243 93.376V93.3789Z" fill="#09672F"/>
<path d="M82.7159 100.348H78.52L81.5437 81.0956L81.6141 80.6469C81.6618 80.3444 81.6714 80.0188 81.6451 79.6685C81.6165 79.3183 81.4804 78.9854 81.2345 78.667C80.9874 78.35 80.609 78.0837 80.1017 77.8637C79.592 77.6481 78.8925 77.5381 78.0031 77.5381C77.1138 77.5381 76.3165 77.6481 75.7041 77.8637C75.0953 78.0837 74.6119 78.3414 74.249 78.6438C73.8897 78.942 73.6342 79.2691 73.4779 79.6179C73.3251 79.9725 73.226 80.2807 73.1842 80.5456L73.0995 81.097L70.0734 100.349H65.874L68.9573 80.7482L69.0994 79.8451C69.1615 79.4428 69.3119 78.9116 69.5506 78.2415C69.7846 77.5728 70.2441 76.9027 70.9269 76.237C71.6061 75.5669 72.5456 74.9908 73.7417 74.506C74.9365 74.0211 76.5218 73.7794 78.4985 73.7794C80.4753 73.7794 81.9805 74.0226 83.0262 74.506C84.0707 74.9894 84.8191 75.5669 85.2751 76.237C85.7275 76.9027 85.9687 77.5815 85.9914 78.2661C86.014 78.9536 85.9997 79.4789 85.94 79.8451L85.8612 80.3459L82.7182 100.349L82.7159 100.348Z" fill="#09672F"/>
<path d="M100.125 73.778C103.021 73.778 105.057 74.354 106.226 75.5075C107.392 76.661 107.84 78.1069 107.567 79.8437L107.188 82.2491L105.463 93.2269L105.234 94.6829C105.139 95.2835 104.927 95.9464 104.6 96.6628C104.274 97.3807 103.75 98.0421 103.031 98.6442C102.312 99.2448 101.375 99.7456 100.229 100.148C99.0755 100.546 97.6287 100.749 95.8848 100.749C94.1408 100.749 92.7561 100.546 91.7343 100.148C90.7089 99.7456 89.933 99.2448 89.4006 98.6442C88.8682 98.0435 88.5543 97.3807 88.4516 96.6628C88.3502 95.9449 88.3478 95.2835 88.4433 94.6829L88.8121 92.3281C89.0127 91.0574 89.514 89.9053 90.321 88.8676C91.1243 87.8313 92.1557 87.0961 93.4066 86.6605C94.0298 86.4622 94.7424 86.2277 95.541 85.96C96.3396 85.6922 97.1131 85.4346 97.8591 85.1799C98.6076 84.9295 99.2617 84.7066 99.8192 84.504C100.377 84.3043 100.726 84.1885 100.864 84.1537C101.005 84.0872 101.192 83.996 101.424 83.8788C101.656 83.7615 101.888 83.5878 102.123 83.3505C102.358 83.1204 102.573 82.8483 102.765 82.5501C102.963 82.2476 103.091 81.8974 103.156 81.4965L103.306 80.5427C103.356 80.2098 103.344 79.8668 103.269 79.5166C103.193 79.1663 103.011 78.8407 102.731 78.5382C102.45 78.2386 102.05 77.9955 101.539 77.8102C101.024 77.6278 100.353 77.5352 99.5315 77.5352C97.8842 77.5352 96.7203 77.8826 96.0352 78.5642C95.3536 79.2474 94.9346 80.0752 94.7818 81.0464H90.5848L90.771 79.8422C90.9047 79.0071 91.1816 78.2212 91.6125 77.4831C92.0399 76.7522 92.6427 76.1067 93.4222 75.5538C94.2005 75.0039 95.1411 74.5682 96.2453 74.2527C97.347 73.9329 98.6398 73.7766 100.121 73.7766M102.285 87.0614C102.166 87.3986 101.963 87.649 101.674 87.814C101.383 87.9819 101.12 88.0976 100.876 88.1642C100.358 88.3321 99.7905 88.5246 99.1817 88.7431C98.5706 88.9602 98.0036 89.1484 97.4855 89.3163C96.86 89.5189 96.2715 89.7186 95.7105 89.9169C95.2891 90.0848 94.8761 90.3193 94.4655 90.6203C94.1288 90.8881 93.803 91.2311 93.4914 91.6464C93.1763 92.0647 92.9709 92.5901 92.8707 93.2255C92.6725 94.4962 92.817 95.4442 93.3147 96.0607C93.8101 96.6787 94.8642 96.9884 96.478 96.9884C98.0919 96.9884 99.2951 96.6614 99.9887 96.0101C100.686 95.3573 101.126 94.4311 101.316 93.2255L102.284 87.0599L102.285 87.0614Z" fill="#09672F"/>
<path d="M119.404 96.589L118.814 100.348C116.837 100.348 115.329 100.103 114.286 99.6196C113.242 99.1362 112.483 98.5588 112.014 97.8887C111.545 97.2229 111.295 96.547 111.272 95.8595C111.25 95.1735 111.266 94.6481 111.324 94.2805L111.466 93.3774L113.989 77.3355H110.827L111.387 73.7751H114.547L115.594 67.1088H119.793L118.746 73.7751H122.992L122.435 77.3355H118.185L115.727 92.9765L115.656 93.4295C115.608 93.732 115.6 94.0576 115.628 94.4079C115.653 94.7581 115.787 95.0982 116.033 95.434C116.276 95.7712 116.654 96.0448 117.162 96.2619C117.672 96.479 118.369 96.5875 119.257 96.5875H119.405L119.404 96.589Z" fill="#09672F"/>
<path d="M140.1 93.732L139.958 94.6308C139.896 95.0331 139.745 95.5686 139.511 96.2373C139.273 96.9031 138.82 97.5717 138.158 98.2418C137.492 98.9119 136.56 99.4851 135.366 99.9728C134.172 100.453 132.585 100.701 130.612 100.701C128.639 100.701 127.128 100.453 126.082 99.9728C125.037 99.4865 124.289 98.9134 123.836 98.2418C123.381 97.5732 123.14 96.8973 123.117 96.2098C123.092 95.5281 123.112 95.0013 123.168 94.6308L123.254 94.0779L126.391 74.1268H130.542L127.524 93.3311H127.573L127.493 93.829C127.451 94.1011 127.443 94.4166 127.468 94.7828C127.491 95.1504 127.618 95.4934 127.85 95.8089C128.077 96.1288 128.45 96.3951 128.958 96.6122C129.467 96.8292 130.184 96.9378 131.104 96.9378C132.024 96.9378 132.834 96.8278 133.428 96.6122C134.02 96.3951 134.491 96.136 134.833 95.8364C135.176 95.5354 135.424 95.2083 135.58 94.858C135.733 94.5078 135.836 94.1821 135.88 93.8796L135.968 93.3311H136.017L139.035 74.1268H143.185L140.102 93.732H140.1Z" fill="#09672F"/>
<path d="M158.064 78.5657C157.595 77.8825 156.539 77.5366 154.89 77.5366C154.069 77.5366 153.371 77.6293 152.8 77.8116C152.228 77.9969 151.752 78.24 151.376 78.5396C151 78.8407 150.716 79.1663 150.532 79.518C150.342 79.8682 150.223 80.2113 150.173 80.5441L150.02 81.4979C149.96 81.8988 149.977 82.2491 150.076 82.5516C150.179 82.8497 150.308 83.1218 150.47 83.3519C150.631 83.5893 150.81 83.7629 151.005 83.8802C151.201 83.9974 151.359 84.09 151.48 84.1552C151.606 84.1899 151.916 84.3057 152.412 84.5054C152.906 84.708 153.49 84.9309 154.159 85.1813C154.827 85.436 155.518 85.6937 156.234 85.9614C156.951 86.2292 157.588 86.4622 158.149 86.6605C159.264 87.0961 160.063 87.8313 160.545 88.8676C161.023 89.9053 161.165 91.0588 160.964 92.3281L160.593 94.6829C160.496 95.2835 160.287 95.9464 159.959 96.6642C159.633 97.3821 159.11 98.0435 158.39 98.6456C157.668 99.2462 156.735 99.747 155.587 100.149C154.438 100.547 152.987 100.75 151.245 100.75C149.502 100.75 148.116 100.547 147.091 100.149C146.069 99.747 145.291 99.2462 144.761 98.6456C144.228 98.045 143.914 97.3821 143.812 96.6642C143.709 95.9464 143.707 95.285 143.802 94.6829L144.029 93.2269H148.179C147.99 94.4325 148.141 95.3602 148.629 96.0115C149.119 96.6642 150.186 96.9899 151.834 96.9899C153.483 96.9899 154.598 96.6816 155.289 96.0622C155.977 95.4456 156.424 94.4976 156.622 93.2269C156.725 92.5915 156.69 92.0676 156.527 91.6479C156.358 91.2325 156.152 90.8895 155.898 90.6217C155.58 90.3192 155.223 90.0862 154.822 89.9169C153.89 89.5493 153.021 89.2164 152.214 88.9154C151.498 88.6505 150.807 88.39 150.138 88.1396C149.471 87.8892 148.978 87.7141 148.666 87.6142C148.358 87.4811 148.009 87.2785 147.624 87.0136C147.239 86.7459 146.881 86.3956 146.553 85.96C146.228 85.5243 145.982 84.9975 145.815 84.381C145.647 83.763 145.628 83.0523 145.755 82.2491L146.135 79.8436C146.405 78.1069 147.306 76.661 148.841 75.5075C150.37 74.354 152.584 73.778 155.48 73.778C156.964 73.778 158.206 73.9357 159.209 74.2556C160.212 74.5711 161.015 75.0067 161.62 75.5567C162.224 76.1096 162.625 76.7536 162.824 77.486C163.019 78.2241 163.053 79.01 162.923 79.8451L162.733 81.0492H158.535C158.687 80.0781 158.529 79.2517 158.062 78.5671" fill="#09672F"/>
<path d="M62.1183 107.661C62.1183 110.609 60.3918 112.389 57.6132 112.389H55.3066L54.7539 115.716H53L54.888 104.186H58.5298C60.8091 104.186 62.1183 105.471 62.1183 107.661ZM60.3507 107.858C60.3507 106.607 59.6229 105.997 58.341 105.997H56.345L55.6035 110.576H57.6802C59.3794 110.576 60.3507 109.637 60.3507 107.858Z" fill="#09672F"/>
<path d="M69.9407 109.803C69.9407 110.115 69.8997 110.477 69.8463 110.84L69.0501 115.715H67.3646L68.1471 110.888C68.1882 110.641 68.2005 110.411 68.2005 110.214C68.2005 109.193 67.7422 108.616 66.7572 108.616C65.53 108.616 64.6804 109.44 64.3972 111.152L63.642 115.715H61.9565L63.9526 103.493H65.6381L64.9362 107.791C65.5833 107.116 66.4069 106.819 67.3099 106.819C68.8886 106.819 69.9407 107.856 69.9407 109.801V109.803Z" fill="#09672F"/>
<path d="M79.0585 106.919L77.6288 115.715H76.024L76.1718 114.809C75.5644 115.467 74.7695 115.83 73.8242 115.83C72.0566 115.83 70.6543 114.397 70.6543 111.959C70.6543 108.962 72.4082 106.821 74.7148 106.821C75.8339 106.821 76.6835 107.282 77.1691 108.221L77.3716 106.919H79.0571H79.0585ZM76.7382 110.773C76.7382 109.407 76.05 108.566 74.8365 108.566C73.4069 108.566 72.3548 109.916 72.3548 111.861C72.3548 113.227 73.043 114.068 74.2565 114.068C75.6861 114.068 76.7382 112.716 76.7382 110.773Z" fill="#09672F"/>
<path d="M84.7887 106.821L84.4781 108.78C84.3304 108.747 84.2223 108.73 84.0595 108.73C82.7379 108.73 81.861 109.554 81.5641 111.381L80.8486 115.713H79.1631L80.5927 106.917H82.1975L82.0087 108.053C82.6695 107.131 83.5738 106.819 84.7873 106.819L84.7887 106.821Z" fill="#09672F"/>
<path d="M97.0222 109.752C97.0222 110.082 96.9948 110.444 96.9278 110.84L96.1316 115.715H94.4461L95.2423 110.888C95.2833 110.641 95.2957 110.411 95.2957 110.197C95.2957 109.176 94.851 108.615 93.9194 108.615C92.7592 108.615 91.9904 109.422 91.7072 111.134L90.952 115.713H89.2665L90.0627 110.887C90.1038 110.64 90.1161 110.409 90.1161 110.195C90.1161 109.174 89.6715 108.613 88.7398 108.613C87.5796 108.613 86.8108 109.42 86.5276 111.149L85.7724 115.711H84.0869L85.5166 106.916H87.1213L86.9722 107.871C87.6056 107.146 88.4292 106.817 89.3322 106.817C90.3705 106.817 91.1804 107.312 91.5717 108.267C92.2995 107.312 93.2572 106.817 94.4174 106.817C96.0084 106.817 97.0208 107.838 97.0208 109.749L97.0222 109.752Z" fill="#09672F"/>
<path d="M106.153 106.919L104.723 115.715H103.118L103.266 114.809C102.659 115.467 101.864 115.83 100.92 115.83C99.1523 115.83 97.75 114.397 97.75 111.959C97.75 108.962 99.5039 106.821 101.81 106.821C102.93 106.821 103.779 107.282 104.265 108.221L104.467 106.919H106.153ZM103.833 110.773C103.833 109.407 103.144 108.566 101.931 108.566C100.501 108.566 99.4492 109.916 99.4492 111.861C99.4492 113.227 100.137 114.068 101.351 114.068C102.78 114.068 103.833 112.716 103.833 110.773Z" fill="#09672F"/>
<path d="M106.327 111.959C106.327 109.011 108.108 106.821 110.643 106.821C112.1 106.821 113.166 107.512 113.746 108.879L112.303 109.784C111.965 108.961 111.359 108.565 110.509 108.565C109.08 108.565 108.028 109.914 108.028 111.859C108.028 113.226 108.716 114.066 109.943 114.066C110.739 114.066 111.44 113.687 111.912 112.846L113.153 113.867C112.478 115.102 111.237 115.827 109.861 115.827C107.702 115.827 106.327 114.278 106.327 111.956V111.959Z" fill="#09672F"/>
<path d="M120.746 111.928H115.026C115.054 113.327 115.714 114.086 117.103 114.086C117.925 114.086 118.68 113.757 119.18 113.18L119.882 114.614C119.126 115.437 118.033 115.833 116.928 115.833C114.757 115.833 113.38 114.301 113.38 111.963C113.38 108.981 115.121 106.824 117.535 106.824C119.531 106.824 120.853 108.274 120.853 110.678C120.853 111.122 120.812 111.552 120.745 111.929L120.746 111.928ZM115.175 110.559H119.303C119.317 109.208 118.575 108.468 117.455 108.468C116.334 108.468 115.486 109.275 115.175 110.559Z" fill="#09672F"/>
<path d="M129.404 106.919L127.961 115.715H126.356L126.517 114.742C125.856 115.484 125.007 115.83 124.075 115.83C122.524 115.83 121.472 114.776 121.472 112.848C121.472 112.519 121.499 112.173 121.566 111.794L122.362 106.919H124.048L123.252 111.745C123.211 111.993 123.197 112.207 123.197 112.42C123.197 113.441 123.669 114.017 124.626 114.017C125.828 114.017 126.677 113.194 126.96 111.481L127.716 106.919H129.401H129.404Z" fill="#09672F"/>
<path d="M131.872 112.766C131.858 112.898 131.844 113.03 131.844 113.145C131.844 113.755 132.1 114.134 132.694 114.134C133.018 114.134 133.355 114.019 133.638 113.789L133.935 115.304C133.422 115.7 132.788 115.832 132.195 115.832C130.967 115.832 130.13 114.958 130.13 113.476C130.13 113.262 130.144 113.032 130.185 112.785L130.873 108.633H129.699L129.969 106.986H131.143L131.467 104.976H133.152L132.816 106.986H134.758L134.489 108.633H132.546L131.872 112.768V112.766Z" fill="#09672F"/>
<path d="M135.972 106.919H137.658L136.228 115.715H134.542L135.972 106.919ZM136.188 104.318C136.188 103.576 136.647 103 137.335 103C137.942 103 138.347 103.494 138.347 104.104C138.347 104.911 137.889 105.471 137.201 105.471C136.593 105.471 136.19 104.943 136.19 104.318H136.188Z" fill="#09672F"/>
<path d="M137.832 111.959C137.832 109.011 139.613 106.821 142.148 106.821C143.605 106.821 144.671 107.512 145.251 108.879L143.808 109.784C143.47 108.961 142.864 108.565 142.014 108.565C140.585 108.565 139.533 109.914 139.533 111.859C139.533 113.226 140.221 114.066 141.448 114.066C142.244 114.066 142.945 113.687 143.417 112.846L144.657 113.867C143.983 115.102 142.742 115.827 141.366 115.827C139.207 115.827 137.832 114.278 137.832 111.956V111.959Z" fill="#09672F"/>
<path d="M153.289 106.919L151.859 115.715H150.255L150.402 114.809C149.795 115.467 149 115.83 148.056 115.83C146.289 115.83 144.886 114.397 144.886 111.959C144.886 108.962 146.64 106.821 148.947 106.821C150.066 106.821 150.915 107.282 151.401 108.221L151.604 106.919H153.289ZM150.969 110.773C150.969 109.407 150.281 108.566 149.067 108.566C147.637 108.566 146.585 109.916 146.585 111.861C146.585 113.227 147.274 114.068 148.487 114.068C149.917 114.068 150.969 112.716 150.969 110.773Z" fill="#09672F"/>
<path d="M155.392 103.494H157.077L155.081 115.716H153.396L155.392 103.494Z" fill="#09672F"/>
<path d="M156.039 114.876L156.741 113.294C157.321 113.805 158.292 114.151 159.25 114.151C160.355 114.151 160.882 113.755 160.882 113.097C160.882 111.647 156.984 112.768 156.984 109.786C156.984 107.942 158.361 106.821 160.41 106.821C161.381 106.821 162.392 107.101 163 107.577L162.379 109.159C161.745 108.665 160.949 108.484 160.247 108.484C159.154 108.484 158.629 108.946 158.629 109.555C158.629 111.071 162.527 109.935 162.527 112.866C162.527 114.794 161.097 115.832 159.073 115.832C157.819 115.832 156.633 115.421 156.039 114.876Z" fill="#09672F"/>
</svg>
