<svg width="759" height="209" viewBox="0 0 759 209" fill="none" xmlns="http://www.w3.org/2000/svg">
<path fill-rule="evenodd" clip-rule="evenodd" d="M15.0206 75.75C7.12057 117.41 0.400568 152.32 0.0805682 153.33C-0.479432 155.08 0.980568 155.14 34.5006 154.83L69.5006 154.5C77.6406 150.24 81.6306 147.54 83.6306 145.75C85.6306 143.96 88.2806 140.47 89.5206 138C90.8706 135.31 93.2206 125.87 95.3806 114.5C97.3706 104.05 99.0006 93.59 99.0006 91.25C99.0006 88.91 98.3906 85.54 97.6506 83.75C96.9206 81.96 95.5506 79.83 94.6306 79C93.0706 77.61 93.2006 77.34 96.2206 75.39C98.0306 74.23 100.731 71.08 102.221 68.39C104.241 64.77 105.991 58.19 108.971 43C111.181 31.72 112.991 21.6 112.991 20.5C112.991 19.4 112.491 16.7 111.891 14.5C111.221 12.07 109.171 8.93 106.651 6.49C104.371 4.29 100.701 1.93 98.5006 1.26C95.7006 0.4 84.7506 0.03 61.9406 0.02L29.3906 0L15.0206 75.75ZM49.1106 16H82.9906L85.9906 19C88.1006 21.11 88.9906 22.97 88.9906 25.25C88.9906 27.04 87.6706 35.25 86.0606 43.5C84.2506 52.76 82.4206 59.46 81.2606 61C80.2306 62.38 77.1606 64.61 74.4406 65.97C69.9306 68.22 68.1406 68.46 54.2406 68.72C45.8606 68.87 38.9906 68.89 38.9906 68.75C38.9906 68.61 40.7906 59.05 42.9806 47.5C45.1806 35.95 47.4606 24.14 48.0406 21.25L49.1106 16ZM35.6506 87.11C36.1206 85.99 38.8906 85.82 50.3606 86.24C61.0806 86.63 65.5506 87.2 68.8906 88.62C71.5506 89.76 73.8106 91.58 74.6406 93.25C75.8306 95.68 75.6206 97.96 72.7906 112.75C70.6572 123.91 68.9006 130.493 67.5206 132.5C66.3806 134.15 63.8906 136.29 61.9706 137.25C59.0906 138.7 55.7206 139 42.2406 139C29.9006 139 26.0006 138.7 26.0006 137.75C26.0106 137.06 28.0606 125.7 30.5506 112.5C33.0406 99.3 35.3406 87.88 35.6506 87.11ZM138.551 2.25C138.291 3.49 137.381 8.1 136.521 12.5C135.671 16.9 134.971 21.06 134.981 21.75C134.991 22.67 137.871 23 145.991 23C155.631 23 157.051 22.78 157.441 21.25C157.691 20.29 158.601 15.68 159.461 11C160.321 6.33 161.011 1.94 161.011 1.25C161.001 0.33 158.121 0 150.011 0C139.431 0 139.011 0.0799999 138.551 2.25ZM706.991 42.03C703.421 42.44 698.471 43.33 695.991 43.98C693.521 44.64 689.301 46.38 686.631 47.84C683.951 49.3 679.851 52.53 677.521 55C674.761 57.93 672.681 61.42 671.561 65C670.621 68.03 669.581 74.1 669.261 78.5C668.731 85.71 668.911 86.93 671.081 90.81C672.411 93.18 675.071 96.2 676.991 97.53C678.921 98.86 688.591 102.48 698.491 105.57C708.391 108.66 717.621 111.76 718.991 112.46C720.371 113.16 722.281 114.92 723.241 116.37C724.211 117.82 724.981 120.46 724.971 122.25C724.961 124.04 724.141 127.3 723.161 129.5C722.181 131.7 720.051 134.48 718.431 135.68C716.821 136.88 713.021 138.4 709.991 139.06C706.971 139.71 701.341 140.04 697.491 139.79C693.641 139.53 689.141 138.63 687.491 137.78C685.841 136.93 683.931 135.06 683.241 133.62C682.561 132.18 681.991 129.43 681.991 127.5V124C660.401 124 659.981 124.08 659.511 126.25C659.241 127.49 659.011 131.43 659.001 135C658.991 140.29 659.451 142.2 661.491 145.25C663.221 147.83 665.941 149.92 670.241 151.97C673.681 153.6 679.641 155.46 683.491 156.11C687.811 156.83 695.091 157.05 702.491 156.69C709.091 156.36 716.741 155.47 719.491 154.71C722.241 153.94 726.521 152.43 728.991 151.35C731.471 150.26 735.461 147.61 737.871 145.44C740.271 143.27 743.081 139.81 744.121 137.75C745.151 135.69 746.731 129.61 747.641 124.25C748.961 116.44 749.061 113.65 748.141 110.25C747.511 107.91 745.761 104.59 744.241 102.87C742.731 101.14 740.141 99.06 738.491 98.23C736.841 97.4 726.941 94.07 716.491 90.83C700.831 85.96 697.011 84.41 694.741 81.96C692.901 79.97 692.001 77.93 692.021 75.75C692.031 73.96 692.841 70.7 693.821 68.5C695.251 65.29 696.771 63.91 701.551 61.52C706.861 58.85 708.461 58.54 716.491 58.57C722.951 58.6 726.411 59.09 728.741 60.3C730.531 61.24 732.671 63.01 733.501 64.25C734.331 65.49 735.011 67.96 735.001 69.75L734.991 73H757.991C758.961 63.98 758.751 59.89 758.111 57.75C757.501 55.69 755.531 52.52 753.741 50.71C751.961 48.9 748.021 46.46 744.991 45.29C741.971 44.12 735.671 42.68 730.991 42.08C726.321 41.49 720.471 41.06 717.991 41.13C715.521 41.2 710.571 41.61 706.991 42.03ZM292.991 185.37C290.581 197.77 288.841 208.13 289.111 208.4C289.391 208.67 291.301 208.87 293.361 208.86C297.091 208.83 297.121 208.79 298.131 203.58C298.691 200.69 299.701 195.9 300.381 192.94C301.081 189.87 302.641 186.54 304.001 185.19C305.681 183.53 307.531 182.83 310.251 182.83C313.171 182.83 314.461 183.38 315.531 185.08C316.741 187.02 316.741 188.3 315.511 194.33C314.731 198.18 313.761 203.06 313.351 205.17L312.611 209L321.541 208.33C324.241 195.16 325.041 189.19 325.071 186.58C325.091 183.97 324.661 180.93 324.111 179.83C323.561 178.73 321.651 177.1 319.861 176.2C317.621 175.08 315.071 174.73 311.611 175.07C308.861 175.35 305.941 175.84 305.111 176.18C303.801 176.72 303.771 176.02 304.831 170.56C305.501 167.13 306.061 163.99 306.081 163.58C306.101 163.17 304.141 162.83 301.741 162.83H297.361L292.991 185.37ZM708.641 164.08C708.411 164.77 706.401 174.55 704.171 185.83C701.941 197.1 700.111 206.89 700.111 207.58C700.121 208.42 701.491 208.75 704.331 208.58L708.541 208.33C715.111 175.78 717.041 165.54 717.071 164.58C717.111 163.19 716.281 162.83 713.091 162.83C710.771 162.83 708.891 163.36 708.641 164.08ZM256.641 166.08C256.411 166.77 254.591 175.65 252.591 185.83C250.601 196 248.771 205.34 248.541 206.58C248.151 208.64 248.491 208.83 252.621 208.83C256.471 208.83 257.191 208.5 257.621 206.58C257.901 205.34 258.481 202.53 258.911 200.33L259.701 196.33C276.141 195.46 279.511 194.8 282.011 193.33C283.881 192.23 286.361 190.06 287.511 188.51C289.181 186.26 289.621 184.24 289.621 178.67C289.621 172.27 289.381 171.44 286.871 169.24C285.361 167.91 282.431 166.38 280.371 165.83C278.311 165.29 272.221 164.84 266.841 164.83C259.911 164.83 256.941 165.19 256.641 166.08ZM264.341 172.83L270.481 172.82C274.301 172.82 277.471 173.38 278.871 174.32C280.431 175.37 281.121 176.83 281.131 179.08C281.131 180.87 280.451 183.34 279.631 184.58C278.801 185.82 276.431 187.28 274.371 187.82C272.311 188.37 268.481 188.82 265.871 188.82C261.841 188.83 261.191 188.56 261.561 187.08C261.801 186.12 262.531 182.52 263.171 179.08L264.341 172.83ZM600.661 171.33C600.181 174.43 599.781 174.83 597.121 174.83C594.941 174.83 594.121 175.3 594.111 176.58C594.101 177.54 593.871 179.34 593.611 180.58C593.201 182.44 593.551 182.83 595.621 182.83C597.681 182.83 598.041 183.23 597.681 185.08C597.431 186.32 596.681 190.25 596.011 193.83C595.071 198.79 595.051 201.04 595.931 203.33C596.561 204.98 598.221 206.89 599.601 207.58C600.991 208.27 603.581 208.82 605.371 208.82C607.161 208.81 609.631 208.58 610.871 208.32C612.401 207.98 613.121 207.11 613.111 205.58C613.101 204.34 612.761 202.75 612.361 202.04C611.911 201.26 610.631 200.96 609.121 201.3C607.751 201.6 605.951 201.42 605.121 200.89C603.801 200.06 603.791 199.05 605.001 192.63C605.761 188.62 606.551 184.77 606.751 184.08C606.971 183.33 608.821 182.84 611.371 182.85C615.361 182.87 615.671 182.67 616.381 179.6C616.801 177.8 617.141 175.99 617.131 175.58C617.131 175.17 615.211 174.84 612.871 174.85L608.621 174.87L610.121 167.83C601.331 167.83 601.181 167.93 600.661 171.33ZM338.151 176.16C336.231 176.84 333.671 178.74 332.461 180.37C331.241 182 329.771 184.57 329.181 186.08C328.601 187.59 328.121 191.19 328.121 194.08C328.127 197.58 328.794 200.413 330.121 202.58C331.221 204.37 333.471 206.5 335.121 207.33C336.771 208.15 339.921 208.83 342.121 208.83C344.321 208.83 347.361 208.35 348.871 207.77C350.811 207.01 351.691 207.01 351.871 207.77C352.011 208.35 353.921 208.83 356.121 208.83C358.321 208.83 360.121 208.72 360.111 208.58C360.111 208.44 361.461 201.58 363.121 193.33C364.781 185.08 366.131 177.54 366.131 176.58C366.121 175.21 365.261 174.83 362.121 174.83C359.454 174.83 357.954 175.33 357.621 176.33C357.181 177.66 356.791 177.66 354.121 176.33C352.471 175.5 348.981 174.85 346.371 174.87C343.761 174.89 340.061 175.47 338.151 176.16ZM343.221 183.09C344.541 182.41 346.181 181.85 346.871 181.84C347.561 181.84 349.471 182.5 351.121 183.33C352.771 184.15 354.391 185.84 354.721 187.08C355.061 188.32 355.071 190.68 354.751 192.33C354.431 193.98 352.921 196.59 351.391 198.12C349.451 200.08 347.481 200.98 344.781 201.12C341.611 201.29 340.511 200.81 338.421 198.33C336.471 196.01 336.041 194.65 336.521 192.33C336.861 190.68 337.971 188.2 338.981 186.83C339.991 185.45 341.891 183.77 343.221 183.09ZM369.241 190.58C367.521 199.24 366.121 206.89 366.121 207.58C366.121 208.42 367.491 208.75 370.301 208.58L374.481 208.33C377.291 195.15 378.671 190.03 379.361 188.44C380.051 186.86 381.861 184.94 383.371 184.19C384.881 183.44 387.131 182.84 388.371 182.85C390.101 182.87 390.801 182.12 391.381 179.6C391.801 177.8 392.141 175.99 392.131 175.58C392.131 175.17 390.771 174.83 389.121 174.83C387.471 174.83 384.771 175.5 383.121 176.33C380.451 177.66 380.121 177.66 380.121 176.33C380.121 175.25 379.021 174.83 376.241 174.83H372.361L369.241 190.58ZM391.721 189.08C390.201 196.92 388.661 204.58 388.291 206.1C387.641 208.82 387.711 208.87 392.121 208.85L396.621 208.83C400.491 190.36 401.751 186.68 403.371 185.02C405.111 183.24 406.511 182.79 409.521 183.02C411.851 183.21 413.861 184.02 414.521 185.05C415.351 186.34 415.151 189.22 413.731 196.55C412.691 201.93 411.681 206.89 411.481 207.58C411.231 208.45 412.501 208.83 415.621 208.83H420.121C421.531 201.47 422.501 196.63 423.181 193.33C423.971 189.52 425.281 186.51 426.771 185.08C428.481 183.44 430.121 182.9 432.771 183.08C434.931 183.23 436.871 184.04 437.521 185.06C438.331 186.34 438.271 188.71 437.291 194.06C436.551 198.06 435.651 203.02 435.291 205.09L434.621 208.86C442.461 208.83 443.201 208.48 443.631 206.58C443.901 205.34 444.801 201.07 445.631 197.08C446.451 193.09 447.121 188.03 447.121 185.83C447.121 183.63 446.671 180.93 446.121 179.83C445.571 178.73 443.771 177.15 442.121 176.33C440.471 175.5 437.211 174.82 434.871 174.82C432.511 174.82 428.961 175.7 426.871 176.82C423.121 178.83 423.121 178.83 419.871 176.83C417.891 175.61 414.871 174.84 412.121 174.84C409.651 174.84 406.391 175.51 404.871 176.33C402.431 177.66 402.181 177.66 402.621 176.33C403.021 175.15 402.201 174.83 398.801 174.83H394.491L391.721 189.08ZM459.221 177.08C456.221 178.61 454.021 180.76 452.271 183.83C450.401 187.13 449.711 189.79 449.701 193.83C449.691 197.31 450.321 200.34 451.401 202.08C452.341 203.59 454.581 205.73 456.361 206.83C458.271 207.99 461.381 208.82 463.861 208.83C466.201 208.83 469.351 208.35 470.861 207.77C472.811 207.01 473.691 207.01 473.861 207.77C474.001 208.35 475.801 208.84 477.861 208.85L481.611 208.87C486.651 184.43 488.121 176.77 488.121 176.08C488.121 175.29 486.651 174.83 484.111 174.83C481.511 174.83 479.851 175.36 479.361 176.37C478.691 177.75 478.311 177.75 475.611 176.37C473.961 175.53 470.591 174.84 468.111 174.84C465.411 174.83 461.861 175.73 459.221 177.08ZM464.311 183.6C466.131 182.65 467.841 181.86 468.111 181.84C468.391 181.81 469.961 182.24 471.611 182.78C473.311 183.33 475.201 184.97 475.961 186.54C476.711 188.09 477.041 190.56 476.711 192.08C476.381 193.59 475.061 196.07 473.771 197.58C472.481 199.09 470.121 200.61 468.521 200.96C466.921 201.31 464.491 201.21 463.111 200.74C461.741 200.26 460.051 198.74 459.361 197.35C458.681 195.96 458.111 194.15 458.111 193.33C458.111 192.5 458.771 190.37 459.561 188.58C460.361 186.79 462.501 184.55 464.311 183.6ZM498.441 176.97C496.141 178.15 492.991 180.94 491.441 183.16C489.351 186.15 488.531 188.66 488.281 192.77C488.001 197.31 488.371 198.97 490.301 201.83C491.591 203.75 494.221 206.12 496.131 207.08C498.051 208.04 501.751 208.83 504.361 208.83C506.981 208.83 510.581 208.21 512.361 207.46C514.151 206.7 516.631 204.9 517.861 203.46L520.111 200.83L514.111 196.83C508.991 200.57 506.721 201.27 504.291 201.16C501.751 201.04 500.061 200.27 498.821 198.66C497.841 197.38 497.051 195.09 497.071 193.58C497.101 192.07 497.561 189.7 498.111 188.33C498.661 186.95 500.331 185.04 501.821 184.08C503.311 183.12 505.971 182.33 507.741 182.33C509.741 182.33 511.841 183.19 513.281 184.61C515.571 186.85 515.671 186.86 518.861 185.11C520.641 184.13 522.121 182.88 522.131 182.33C522.151 181.78 521.141 180.37 519.891 179.2C518.641 178.04 516.601 176.57 515.361 175.95C514.131 175.34 510.751 174.83 507.861 174.83C504.461 174.83 501.141 175.59 498.441 176.97ZM530.111 176.7C528.191 177.73 525.261 180.25 523.611 182.3C521.181 185.32 520.541 187.19 520.211 192.18C519.881 197.07 520.221 199.05 521.841 201.83C523.131 204.04 525.391 205.97 528.001 207.08C530.261 208.04 534.251 208.82 536.861 208.81C539.481 208.79 543.531 207.89 545.861 206.81C548.201 205.72 550.111 204.6 550.111 204.33C550.111 204.05 549.441 202.48 548.611 200.83L547.111 197.83C538.401 201.72 537.041 201.89 534.111 201.01C532.001 200.37 530.121 198.93 529.361 197.39L528.111 194.83H554.111C553.681 183.72 553.091 181.46 551.611 179.8C550.511 178.56 548.151 176.94 546.361 176.19C544.581 175.44 540.981 174.83 538.361 174.83C535.621 174.82 532.141 175.61 530.111 176.7ZM533.361 183.32C534.601 182.49 537.081 181.82 538.861 181.82C540.771 181.83 542.941 182.65 544.111 183.83C545.211 184.93 546.111 186.5 546.111 187.33C546.111 188.54 544.501 188.83 537.611 188.83C529.451 188.83 529.151 188.75 530.111 186.83C530.661 185.73 532.131 184.15 533.361 183.32ZM558.151 186.08C556.941 192.27 556.201 198.68 556.501 200.33C556.811 201.98 558.241 204.45 559.681 205.83C561.611 207.67 563.671 208.43 567.461 208.71C570.331 208.92 573.721 208.55 575.111 207.86C576.961 206.95 577.751 206.93 578.111 207.77C578.401 208.42 580.311 208.78 582.581 208.62L586.541 208.33C591.561 183.53 593.041 175.99 593.071 175.58C593.091 175.17 591.201 174.82 588.861 174.81L584.611 174.79C582.601 184.51 581.361 189.69 580.561 192.58C579.681 195.78 578.241 198.42 576.861 199.34C575.631 200.17 572.931 200.84 570.861 200.84C567.981 200.83 566.861 200.31 565.991 198.58C565.131 196.86 565.261 194.22 566.551 187.33C567.471 182.38 568.431 177.54 568.671 176.58C569.041 175.11 568.411 174.83 564.731 174.83H560.351L558.151 186.08ZM618.721 189.08C617.201 196.92 615.651 204.58 615.291 206.1C614.631 208.82 614.701 208.87 619.121 208.86L623.621 208.84C628.001 186.74 629.581 179.08 629.951 177.56C630.611 174.83 630.541 174.78 626.051 174.81L621.481 174.83L618.721 189.08ZM641.121 176.43C639.191 177.27 636.781 178.71 635.761 179.64C634.741 180.57 633.051 183.02 632.011 185.08C630.851 187.38 630.131 190.86 630.151 194.08C630.171 197.49 630.871 200.47 632.151 202.58C633.411 204.67 635.641 206.4 638.371 207.42C641.011 208.41 644.731 208.89 648.181 208.67C652.331 208.42 654.681 207.63 657.431 205.58C659.461 204.07 661.121 202.27 661.131 201.58C661.141 200.89 659.791 199.54 658.131 198.58C655.421 197 654.991 196.98 653.871 198.38C653.181 199.23 651.161 200.36 649.371 200.88C647.071 201.55 645.311 201.46 643.371 200.56C641.861 199.87 640.071 198.18 639.411 196.81C638.561 195.09 638.471 193.26 639.111 190.83C639.621 188.9 641.221 186.2 642.661 184.83C644.561 183.01 646.381 182.33 649.291 182.33C652.211 182.33 653.811 182.94 655.211 184.58C657.011 186.7 657.301 186.74 660.121 185.33C661.771 184.5 663.341 183.83 663.621 183.83C663.891 183.83 663.611 184.84 662.981 186.08C662.361 187.32 661.821 190.8 661.781 193.83C661.731 197.39 662.311 200.3 663.411 202.08C664.351 203.59 666.581 205.73 668.371 206.83C670.271 207.99 673.381 208.82 675.871 208.83C678.211 208.83 681.361 208.35 682.871 207.77C684.811 207.01 685.691 207.01 685.871 207.77C686.011 208.35 687.811 208.84 689.871 208.85L693.621 208.87C698.661 184.43 700.121 176.77 700.121 176.08C700.121 175.29 698.651 174.83 696.121 174.83C693.511 174.83 691.861 175.36 691.371 176.37C690.691 177.75 690.311 177.75 687.621 176.37C685.971 175.53 682.591 174.84 680.121 174.85C677.641 174.85 673.711 175.75 671.371 176.84C669.031 177.94 666.671 179.73 666.121 180.83C665.151 182.77 665.051 182.74 662.871 180.15C661.631 178.68 659.161 176.88 657.371 176.15C655.581 175.42 651.981 174.85 649.371 174.87C646.761 174.89 643.041 175.59 641.121 176.43ZM676.321 183.6C678.131 182.65 679.841 181.86 680.121 181.84C680.391 181.81 681.971 182.24 683.621 182.78C685.511 183.4 687.061 184.86 687.821 186.73C688.481 188.36 688.821 190.96 688.581 192.51C688.331 194.06 686.891 196.51 685.371 197.94C683.861 199.38 681.491 200.81 680.121 201.11C678.741 201.42 676.491 201.26 675.121 200.77C673.741 200.28 672.061 198.74 671.371 197.35C670.681 195.96 670.121 194.15 670.121 193.33C670.121 192.5 670.771 190.37 671.571 188.58C672.361 186.79 674.501 184.55 676.321 183.6ZM724.241 175.53C722.941 175.77 720.581 177.28 718.991 178.89C716.931 181 716.121 182.82 716.121 185.33C716.121 187.25 716.571 189.73 717.121 190.83C717.671 191.93 719.581 193.25 721.371 193.77C723.161 194.29 726.531 195.19 728.871 195.77C731.511 196.43 733.121 197.4 733.121 198.33C733.121 199.15 731.941 200.39 730.511 201.08C728.481 202.05 726.861 202.07 723.261 201.18C720.711 200.55 717.721 199.72 716.621 199.34C715.061 198.81 714.321 199.29 713.261 201.49C712.511 203.05 712.181 204.89 712.511 205.58C712.851 206.27 714.811 207.28 716.871 207.82C718.931 208.37 723.091 208.81 726.121 208.81C729.481 208.8 733.171 208.05 735.621 206.88C737.821 205.82 740.181 203.8 740.871 202.39C741.561 200.98 742.121 198.93 742.121 197.83C742.121 196.73 741.671 194.93 741.121 193.83C740.571 192.73 738.881 191.21 737.371 190.45C735.861 189.69 732.821 188.79 730.621 188.46C728.421 188.13 726.061 187.17 725.371 186.34C724.341 185.09 724.511 184.57 726.371 183.32C727.611 182.49 729.861 181.82 731.371 181.82C732.881 181.83 735.691 182.5 737.621 183.33C741.101 184.82 741.131 184.81 742.621 181.83C743.441 180.18 744.121 178.38 744.121 177.83C744.121 177.28 742.431 176.38 740.371 175.83C738.311 175.29 734.371 174.9 731.621 174.97C728.871 175.04 725.551 175.29 724.241 175.53ZM511.091 25.25C509.881 31.99 508.691 38.29 508.441 39.25C508.071 40.73 506.781 41 500.001 41C492.511 41 491.971 41.14 491.511 43.25C491.241 44.49 490.571 47.52 490.031 50C489.491 52.47 489.041 55.06 489.021 55.75C489.011 56.65 491.251 57 497.001 57C501.401 57 505.001 57.11 505.001 57.25C505.011 57.39 501.861 73.92 498.011 94C494.161 114.07 491.011 131.96 491.011 133.75C491.001 135.54 491.601 138.46 492.341 140.25C493.081 142.04 495.211 144.87 497.091 146.55C498.961 148.23 503.201 150.64 506.501 151.92C510.331 153.4 515.801 154.46 521.611 154.87C530.141 155.46 530.761 155.37 531.301 153.5C531.621 152.4 532.361 148.8 532.951 145.5C533.531 142.2 534.011 139.16 534.001 138.75C534.001 138.34 532.311 138 530.251 138C528.191 138 524.921 137.54 523.001 136.98C521.071 136.41 518.471 134.95 517.221 133.73C515.691 132.23 514.961 130.35 514.981 128C515.001 126.07 517.711 110.32 521.001 93C524.291 75.67 527.211 60.49 527.491 59.25C527.981 57.08 528.411 57 538.751 57.02L549.501 57.04C551.521 47.32 552.311 43.71 552.561 42.75C552.961 41.16 551.981 41 542.001 41C535.951 41 531.001 40.89 531.001 40.75C531.011 40.61 532.131 34.65 533.511 27.5C534.881 20.35 536.001 14.16 536.001 13.75C536.001 13.34 530.891 13 524.651 13H513.301L511.091 25.25ZM203.001 41.93C199.421 42.37 194.701 43.3 192.501 43.99C190.301 44.67 186.251 46.34 183.501 47.69C180.751 49.03 176.991 51.57 175.161 53.32C173.321 55.07 170.961 58.19 169.911 60.25C168.811 62.39 165.221 78.44 161.511 97.75C157.941 116.31 155.011 133.41 155.011 135.75C155.001 138.09 155.631 141.24 156.411 142.75C157.181 144.26 159.091 146.71 160.661 148.2C162.221 149.68 165.521 151.79 168.001 152.89C170.471 153.99 175.871 155.42 180.001 156.07C184.411 156.76 192.421 157.04 199.501 156.73C208.771 156.33 213.321 155.61 219.501 153.57C224.021 152.08 229.671 149.3 232.501 147.17C235.251 145.11 238.581 141.41 239.911 138.96C241.691 135.67 243.981 125.8 248.661 101.25C252.141 82.96 254.991 65.64 254.991 62.75C254.984 59.25 254.317 56.4167 252.991 54.25C251.891 52.46 249.531 49.91 247.751 48.58C245.961 47.26 241.801 45.26 238.501 44.15C234.451 42.79 228.751 41.96 221.001 41.63C214.671 41.35 206.571 41.49 203.001 41.93ZM204.001 59.07C206.471 58.53 211.531 58.3 215.251 58.55C219.171 58.81 223.671 59.84 226.001 61C228.201 62.1 230.481 64.01 231.081 65.25C231.941 67.03 230.981 73.76 226.501 97.5C223.381 114 220.081 129 219.161 130.84C217.991 133.2 215.871 134.97 212.001 136.84C207.231 139.15 205.231 139.5 197.001 139.5C189.851 139.5 186.691 139.06 184.251 137.75C182.461 136.79 180.251 134.76 179.341 133.25C177.751 130.61 177.931 129.25 183.591 100.02C187.721 78.7 190.101 68.64 191.501 66.57C192.601 64.94 194.851 62.81 196.501 61.82C198.151 60.84 201.521 59.6 204.001 59.07ZM312.501 41.65C310.851 41.85 306.801 42.5 303.501 43.11C300.201 43.71 294.801 45.41 291.501 46.89C288.201 48.36 283.471 51.58 281.001 54.04C278.521 56.49 275.951 60.07 275.291 62C274.631 63.92 270.461 84.62 266.031 108C261.601 131.37 257.751 151.51 257.491 152.75C257.001 154.98 257.091 155 268.501 155H280.001C280.741 150.74 284.381 131.5 288.561 109.5C292.951 86.42 296.871 68.34 297.831 66.77C298.751 65.26 301.071 63.16 303.001 62.1C304.921 61.04 309.421 59.65 313.001 59.01C316.631 58.36 321.701 58.16 324.501 58.54C327.251 58.92 331.181 60.08 333.251 61.12C335.601 62.3 337.311 64.02 337.841 65.75C338.461 67.76 336.591 79.51 330.881 109.5C326.581 132.05 322.821 151.51 322.531 152.75C322.001 154.98 322.081 155 333.501 155C344.611 155 345.011 154.92 345.491 152.75C345.751 151.51 349.621 131.37 354.071 108C359.071 81.74 362.041 63.76 361.831 60.94C361.601 57.76 360.591 55.21 358.501 52.5C356.571 50 353.341 47.61 349.501 45.85C345.761 44.13 340.291 42.69 335.001 42.04C330.321 41.47 324.021 41.06 321.001 41.15C317.971 41.23 314.151 41.46 312.501 41.65ZM421.001 42.11C417.421 42.58 411.801 43.87 408.501 44.97C405.201 46.07 400.471 48.23 398.001 49.77C395.521 51.32 392.281 54.14 390.801 56.04C389.321 57.94 387.401 61.52 386.531 64C385.661 66.47 384.961 69.51 384.971 70.75C384.991 72.94 385.261 73 396.001 73H407.001C408.641 68.74 410.551 66.03 412.311 64.23C414.061 62.43 417.071 60.43 419.001 59.79C420.921 59.15 426.321 58.63 431.001 58.64C436.741 58.65 440.711 59.2 443.251 60.33C445.311 61.25 447.751 63.24 448.671 64.75C449.911 66.78 450.171 68.61 449.671 71.75C449.301 74.09 448.211 77.17 447.251 78.61C446.281 80.05 444.151 82.05 442.501 83.05C440.851 84.06 429.601 87.65 417.501 91.04C405.401 94.43 393.811 98.05 391.751 99.1C389.681 100.14 386.531 102.29 384.751 103.87C382.961 105.45 380.301 108.93 378.831 111.62C377.371 114.3 375.401 120.32 374.461 125C373.321 130.71 372.991 135.14 373.471 138.5C374.051 142.57 374.951 144.25 378.341 147.55C381.191 150.33 384.691 152.37 389.501 154.05C395.801 156.25 398.091 156.5 412.501 156.5C427.281 156.5 429.141 156.29 437.001 153.72C441.951 152.1 447.581 149.39 450.501 147.22C453.931 144.67 456.341 141.77 458.201 138C460.231 133.85 462.391 124.62 466.951 100.5C470.271 82.9 472.991 66.14 472.991 63.25C472.991 60.36 472.381 56.76 471.621 55.25C470.871 53.74 468.731 51.12 466.871 49.45C465.011 47.77 461.251 45.63 458.501 44.7C455.751 43.77 450.121 42.57 446.001 42.03C441.871 41.5 436.021 41.1 433.001 41.16C429.971 41.21 424.571 41.64 421.001 42.11ZM425.501 107.07C434.851 104.39 442.831 102.14 443.251 102.09C443.661 102.04 443.991 102.11 443.991 102.25C443.991 102.39 442.851 108.35 441.451 115.5C440.061 122.65 438.081 129.85 437.041 131.5C436.011 133.15 433.211 135.58 430.831 136.9C427.731 138.62 424.361 139.44 419.001 139.79C414.271 140.1 409.491 139.77 406.081 138.89C402.551 137.98 400.011 136.63 398.801 135C397.681 133.5 396.941 130.89 396.961 128.5C396.971 126.3 397.821 122.92 398.851 121C399.871 119.07 402.461 116.25 404.601 114.73C407.151 112.92 414.381 110.27 425.501 107.07ZM130.531 44.25C130.301 44.94 125.591 69.35 120.061 98.5C114.541 127.65 110.011 152.29 110.011 153.25C110.001 154.81 111.181 155 121.001 155H132.001C133.541 146.86 138.271 122 143.491 94.5C148.721 67 153.001 44.16 153.001 43.75C153.001 43.34 148.031 43 141.971 43C134.041 43 130.831 43.35 130.531 44.25ZM568.081 48.25C567.501 51.14 563.611 71.5 559.431 93.5C554.981 116.85 551.971 135.16 552.191 137.5C552.421 139.93 553.731 143.05 555.531 145.45C557.481 148.04 560.561 150.35 564.501 152.17C567.841 153.72 574.031 155.45 578.501 156.09C583.061 156.74 591.001 156.97 597.001 156.64C602.771 156.31 610.081 155.36 613.251 154.52C616.411 153.68 621.251 151.87 624.001 150.5C626.751 149.12 630.461 146.72 632.251 145.15C634.031 143.59 636.461 140.1 637.641 137.4C638.911 134.5 643.131 114.92 647.951 89.5C652.441 65.85 656.311 45.71 656.551 44.75C656.951 43.16 655.961 43 645.751 42.98L634.501 42.95C628.631 72.83 624.871 92.07 622.361 105C619.841 117.92 617.051 129.76 616.141 131.3C615.241 132.84 612.251 135.21 609.501 136.57C606.371 138.11 601.871 139.27 597.501 139.65C592.451 140.09 588.891 139.81 584.751 138.63C581.161 137.61 578.431 136.15 577.491 134.75C576.661 133.51 575.981 130.92 575.971 129C575.971 127.07 579.351 107.72 583.481 86C587.621 64.27 591.001 45.71 591.001 44.75C591.001 43.19 589.811 43 580.061 43H569.111L568.081 48.25ZM623.621 162.4C622.721 163.26 622.011 164.84 622.051 165.9C622.091 166.96 622.801 168.5 623.621 169.33C624.451 170.15 626.221 170.83 627.551 170.83C628.891 170.83 630.691 170.15 631.551 169.33C632.421 168.5 633.131 166.82 633.141 165.58C633.151 164.34 632.591 162.76 631.891 162.06C631.191 161.37 629.421 160.8 627.951 160.81C626.471 160.82 624.531 161.54 623.621 162.4Z" fill="#006426"/>
</svg>
